<?xml version="1.0" standalone="no"?><!DOCTYPE svg PUBLIC "-//W3C//DTD SVG 1.1//EN" "http://www.w3.org/Graphics/SVG/1.1/DTD/svg11.dtd"><svg class="icon" height="512" viewBox="0 0 1024 1024" version="1.1" xmlns="http://www.w3.org/2000/svg"><path d="M791.661331 699.328C755.403731 684.282669 669.7776 654.522669 616.8048 638.981333 612.258133 637.493333 611.563733 637.328 611.563733 618.48 611.563733 602.938667 617.9456 587.232 624.178667 574.005333 630.9408 559.621333 638.959467 535.482667 641.8032 513.824 649.871469 504.4 660.816531 486.048 667.8432 450.997333 674.026669 420.08 671.133331 408.837333 667.0496 398.256 666.6032 397.098667 666.1568 395.941333 665.8592 394.949333 664.305069 387.674667 666.421331 349.978667 671.712 320.714667 675.3824 300.709333 670.786131 258.053333 643.175469 222.837333 625.749333 200.517333 592.368533 173.072 531.4432 169.269333L498.0128 169.269333C438.112533 173.072 404.748267 200.517333 387.3056 222.837333 359.694933 258.053333 355.1152 300.709333 358.752533 320.714667 364.076267 349.978667 366.192533 387.674667 364.671467 394.784 364.324267 395.941333 363.877867 397.098667 363.448 398.256 359.347733 408.837333 356.470933 420.08 362.6544 450.997333 369.681067 486.048 380.626133 504.4 388.677867 513.824 391.538133 535.482667 399.540267 559.621333 406.3024 574.005333 411.2624 584.586667 413.577067 598.805333 413.577067 619.141333 413.577067 637.989333 412.882667 638.154667 408.6336 639.477333 353.842133 655.68 266.612267 687.258669 234.0912 701.477331 180.605867 638.154667 148.266667 556.314667 148.266667 467.2 148.266667 266.485333 311.434133 103.466667 512 103.466667 712.565869 103.466667 875.733331 266.485333 875.733331 467.2 875.733331 555.322667 844.1216 636.336 791.661331 699.328 791.661331 699.328 844.1216 636.336 791.661331 699.328L791.661331 699.328 791.661331 699.328ZM512 70.4C292.850667 70.4 115.2 247.968 115.2 467.2 115.2 686.266669 292.850667 864 512 864 731.165869 864 908.8 686.266669 908.8 467.2 908.8 247.968 731.165869 70.4 512 70.4L512 70.4Z" /></svg>